solid Visualization Toolkit generated SLA File
 facet normal 0 -1 0
  outer loop
   vertex 1.2360680103302002 10 3.8042261600494385
   vertex -9.1106313235256829e-16 10 4
   vertex 2.3511409759521484 10 3.2360680103302002
  endloop
 endfacet
 facet normal 0 -1 0
  outer loop
   vertex 2.3511409759521484 10 3.2360680103302002
   vertex -9.1106313235256829e-16 10 4
   vertex 3.2360680103302002 10 2.3511409759521484
  endloop
 endfacet
 facet normal 0 -1 0
  outer loop
   vertex -9.1106313235256829e-16 10 4
   vertex -1.2360680103302002 10 3.8042261600494385
   vertex 3.2360680103302002 10 2.3511409759521484
  endloop
 endfacet
 facet normal 0 -1 0
  outer loop
   vertex -1.2360680103302002 10 3.8042261600494385
   vertex -2.3511409759521484 10 3.2360680103302002
   vertex 3.2360680103302002 10 2.3511409759521484
  endloop
 endfacet
 facet normal 0 -1 0
  outer loop
   vertex -2.3511409759521484 10 3.2360680103302002
   vertex -3.2360680103302002 10 2.3511409759521484
   vertex 3.2360680103302002 10 2.3511409759521484
  endloop
 endfacet
 facet normal 0 -1 0
  outer loop
   vertex 3.2360680103302002 10 2.3511409759521484
   vertex -3.2360680103302002 10 2.3511409759521484
   vertex 3.8042261600494385 10 1.2360680103302002
  endloop
 endfacet
 facet normal 0 -1 0
  outer loop
   vertex 3.8042261600494385 10 1.2360680103302002
   vertex -3.2360680103302002 10 2.3511409759521484
   vertex 4 10 4.8985874103406714e-16
  endloop
 endfacet
 facet normal 0 -1 0
  outer loop
   vertex 4 10 4.8985874103406714e-16
   vertex -3.2360680103302002 10 2.3511409759521484
   vertex 3.8042261600494385 10 -1.2360680103302002
  endloop
 endfacet
 facet normal 0 -1 0
  outer loop
   vertex 3.8042261600494385 10 -1.2360680103302002
   vertex -3.2360680103302002 10 2.3511409759521484
   vertex 3.2360680103302002 10 -2.3511409759521484
  endloop
 endfacet
 facet normal 0 -1 0
  outer loop
   vertex 3.2360680103302002 10 -2.3511409759521484
   vertex -3.2360680103302002 10 2.3511409759521484
   vertex 2.3511409759521484 10 -3.2360680103302002
  endloop
 endfacet
 facet normal 0 -1 0
  outer loop
   vertex 2.3511409759521484 10 -3.2360680103302002
   vertex -3.2360680103302002 10 2.3511409759521484
   vertex 1.2360680103302002 10 -3.8042261600494385
  endloop
 endfacet
 facet normal 0 -1 0
  outer loop
   vertex -3.2360680103302002 10 2.3511409759521484
   vertex -3.8042261600494385 10 1.2360680103302002
   vertex 1.2360680103302002 10 -3.8042261600494385
  endloop
 endfacet
 facet normal 0 -1 0
  outer loop
   vertex 1.2360680103302002 10 -3.8042261600494385
   vertex -3.8042261600494385 10 1.2360680103302002
   vertex 6.8654243836447585e-17 10 -4
  endloop
 endfacet
 facet normal 0 -1 0
  outer loop
   vertex 6.8654243836447585e-17 10 -4
   vertex -3.8042261600494385 10 1.2360680103302002
   vertex -1.2360680103302002 10 -3.8042261600494385
  endloop
 endfacet
 facet normal 0 -1 0
  outer loop
   vertex -3.8042261600494385 10 1.2360680103302002
   vertex -4 10 0
   vertex -1.2360680103302002 10 -3.8042261600494385
  endloop
 endfacet
 facet normal 0 -1 0
  outer loop
   vertex -4 10 0
   vertex -3.8042261600494385 10 -1.2360680103302002
   vertex -1.2360680103302002 10 -3.8042261600494385
  endloop
 endfacet
 facet normal 0 -1 0
  outer loop
   vertex -1.2360680103302002 10 -3.8042261600494385
   vertex -3.8042261600494385 10 -1.2360680103302002
   vertex -2.3511409759521484 10 -3.2360680103302002
  endloop
 endfacet
 facet normal 0 -1 0
  outer loop
   vertex -3.8042261600494385 10 -1.2360680103302002
   vertex -3.2360680103302002 10 -2.3511409759521484
   vertex -2.3511409759521484 10 -3.2360680103302002
  endloop
 endfacet
 facet normal -0.82491797006892953 0.54994531337928643 0.1306541042199407
  outer loop
   vertex 6.6613381477509392e-16 16 0
   vertex -4 10 0
   vertex -3.8042261600494385 10 1.2360680103302002
  endloop
 endfacet
 facet normal -0.74416921605524688 0.54994531409629421 0.37917321817244398
  outer loop
   vertex 6.6613381477509392e-16 16 0
   vertex -3.8042261600494385 10 1.2360680103302002
   vertex -3.2360680103302002 10 2.3511409759521484
  endloop
 endfacet
 facet normal -0.5905760567442937 0.54994530855415202 0.5905760567442937
  outer loop
   vertex 6.6613381477509392e-16 16 0
   vertex -3.2360680103302002 10 2.3511409759521484
   vertex -2.3511409759521484 10 3.2360680103302002
  endloop
 endfacet
 facet normal -0.37917321817244398 0.5499453140962941 0.74416921605524688
  outer loop
   vertex 6.6613381477509392e-16 16 0
   vertex -2.3511409759521484 10 3.2360680103302002
   vertex -1.2360680103302002 10 3.8042261600494385
  endloop
 endfacet
 facet normal -0.13065410421994081 0.54994531337928643 0.82491797006892953
  outer loop
   vertex 6.6613381477509392e-16 16 0
   vertex -1.2360680103302002 10 3.8042261600494385
   vertex -9.1106313235256829e-16 10 4
  endloop
 endfacet
 facet normal 0.13065410421994061 0.54994531337928643 0.82491797006892964
  outer loop
   vertex 6.6613381477509392e-16 16 0
   vertex -9.1106313235256829e-16 10 4
   vertex 1.2360680103302002 10 3.8042261600494385
  endloop
 endfacet
 facet normal 0.37917321817244398 0.5499453140962941 0.74416921605524688
  outer loop
   vertex 6.6613381477509392e-16 16 0
   vertex 1.2360680103302002 10 3.8042261600494385
   vertex 2.3511409759521484 10 3.2360680103302002
  endloop
 endfacet
 facet normal 0.59057605674429381 0.54994530855415191 0.59057605674429381
  outer loop
   vertex 6.6613381477509392e-16 16 0
   vertex 2.3511409759521484 10 3.2360680103302002
   vertex 3.2360680103302002 10 2.3511409759521484
  endloop
 endfacet
 facet normal 0.74416921605524688 0.54994531409629399 0.37917321817244398
  outer loop
   vertex 6.6613381477509392e-16 16 0
   vertex 3.2360680103302002 10 2.3511409759521484
   vertex 3.8042261600494385 10 1.2360680103302002
  endloop
 endfacet
 facet normal 0.82491797006892975 0.54994531337928632 0.13065410421994078
  outer loop
   vertex 6.6613381477509392e-16 16 0
   vertex 3.8042261600494385 10 1.2360680103302002
   vertex 4 10 4.8985874103406714e-16
  endloop
 endfacet
 facet normal 0.82491797006892964 0.54994531337928632 -0.13065410421994067
  outer loop
   vertex 6.6613381477509392e-16 16 0
   vertex 4 10 4.8985874103406714e-16
   vertex 3.8042261600494385 10 -1.2360680103302002
  endloop
 endfacet
 facet normal 0.74416921605524688 0.54994531409629399 -0.37917321817244398
  outer loop
   vertex 6.6613381477509392e-16 16 0
   vertex 3.8042261600494385 10 -1.2360680103302002
   vertex 3.2360680103302002 10 -2.3511409759521484
  endloop
 endfacet
 facet normal 0.59057605674429381 0.54994530855415191 -0.59057605674429381
  outer loop
   vertex 6.6613381477509392e-16 16 0
   vertex 3.2360680103302002 10 -2.3511409759521484
   vertex 2.3511409759521484 10 -3.2360680103302002
  endloop
 endfacet
 facet normal 0.37917321817244398 0.5499453140962941 -0.74416921605524688
  outer loop
   vertex 6.6613381477509392e-16 16 0
   vertex 2.3511409759521484 10 -3.2360680103302002
   vertex 1.2360680103302002 10 -3.8042261600494385
  endloop
 endfacet
 facet normal 0.1306541042199407 0.54994531337928632 -0.82491797006892953
  outer loop
   vertex 6.6613381477509392e-16 16 0
   vertex 1.2360680103302002 10 -3.8042261600494385
   vertex 6.8654243836447585e-17 10 -4
  endloop
 endfacet
 facet normal -0.1306541042199407 0.54994531337928632 -0.82491797006892953
  outer loop
   vertex 6.6613381477509392e-16 16 0
   vertex 6.8654243836447585e-17 10 -4
   vertex -1.2360680103302002 10 -3.8042261600494385
  endloop
 endfacet
 facet normal -0.37917321817244398 0.5499453140962941 -0.74416921605524688
  outer loop
   vertex 6.6613381477509392e-16 16 0
   vertex -1.2360680103302002 10 -3.8042261600494385
   vertex -2.3511409759521484 10 -3.2360680103302002
  endloop
 endfacet
 facet normal -0.5905760567442937 0.54994530855415202 -0.5905760567442937
  outer loop
   vertex 6.6613381477509392e-16 16 0
   vertex -2.3511409759521484 10 -3.2360680103302002
   vertex -3.2360680103302002 10 -2.3511409759521484
  endloop
 endfacet
 facet normal -0.74416921605524688 0.54994531409629421 -0.37917321817244398
  outer loop
   vertex 6.6613381477509392e-16 16 0
   vertex -3.2360680103302002 10 -2.3511409759521484
   vertex -3.8042261600494385 10 -1.2360680103302002
  endloop
 endfacet
 facet normal -0.82491797006892953 0.54994531337928643 -0.1306541042199407
  outer loop
   vertex 6.6613381477509392e-16 16 0
   vertex -3.8042261600494385 10 -1.2360680103302002
   vertex -4 10 0
  endloop
 endfacet
 facet normal 0.98768835294971435 0 -0.15643438703648388
  outer loop
   vertex 4 10 0
   vertex 4 -10 0
   vertex 3.8042261600494385 10 -1.2360680103302002
  endloop
 endfacet
 facet normal 0.98768835294971435 0 -0.15643438703648388
  outer loop
   vertex 3.8042261600494385 -10 -1.2360680103302002
   vertex 3.8042261600494385 10 -1.2360680103302002
   vertex 4 -10 0
  endloop
 endfacet
 facet normal 0.89100649325841841 0 -0.4539905604429853
  outer loop
   vertex 3.8042261600494385 10 -1.2360680103302002
   vertex 3.8042261600494385 -10 -1.2360680103302002
   vertex 3.2360680103302002 10 -2.3511409759521484
  endloop
 endfacet
 facet normal 0.89100649325841841 0 -0.4539905604429853
  outer loop
   vertex 3.2360680103302002 -10 -2.3511409759521484
   vertex 3.2360680103302002 10 -2.3511409759521484
   vertex 3.8042261600494385 -10 -1.2360680103302002
  endloop
 endfacet
 facet normal 0.70710678118654757 0 -0.70710678118654757
  outer loop
   vertex 3.2360680103302002 10 -2.3511409759521484
   vertex 3.2360680103302002 -10 -2.3511409759521484
   vertex 2.3511409759521484 10 -3.2360680103302002
  endloop
 endfacet
 facet normal 0.70710678118654757 0 -0.70710678118654757
  outer loop
   vertex 2.3511409759521484 -10 -3.2360680103302002
   vertex 2.3511409759521484 10 -3.2360680103302002
   vertex 3.2360680103302002 -10 -2.3511409759521484
  endloop
 endfacet
 facet normal 0.4539905604429853 0 -0.89100649325841841
  outer loop
   vertex 2.3511409759521484 10 -3.2360680103302002
   vertex 2.3511409759521484 -10 -3.2360680103302002
   vertex 1.2360680103302002 10 -3.8042261600494385
  endloop
 endfacet
 facet normal 0.4539905604429853 0 -0.89100649325841841
  outer loop
   vertex 1.2360680103302002 -10 -3.8042261600494385
   vertex 1.2360680103302002 10 -3.8042261600494385
   vertex 2.3511409759521484 -10 -3.2360680103302002
  endloop
 endfacet
 facet normal 0.15643438703648394 0 -0.98768835294971447
  outer loop
   vertex 1.2360680103302002 10 -3.8042261600494385
   vertex 1.2360680103302002 -10 -3.8042261600494385
   vertex 2.4492937051703357e-16 10 -4
  endloop
 endfacet
 facet normal 0.15643438703648394 0 -0.98768835294971447
  outer loop
   vertex 2.4492937051703357e-16 -10 -4
   vertex 2.4492937051703357e-16 10 -4
   vertex 1.2360680103302002 -10 -3.8042261600494385
  endloop
 endfacet
 facet normal -0.15643438703648385 0 -0.98768835294971435
  outer loop
   vertex 2.4492937051703357e-16 10 -4
   vertex 2.4492937051703357e-16 -10 -4
   vertex -1.2360680103302002 10 -3.8042261600494385
  endloop
 endfacet
 facet normal -0.15643438703648385 -0 -0.98768835294971435
  outer loop
   vertex -1.2360680103302002 -10 -3.8042261600494385
   vertex -1.2360680103302002 10 -3.8042261600494385
   vertex 2.4492937051703357e-16 -10 -4
  endloop
 endfacet
 facet normal -0.4539905604429853 0 -0.89100649325841841
  outer loop
   vertex -1.2360680103302002 10 -3.8042261600494385
   vertex -1.2360680103302002 -10 -3.8042261600494385
   vertex -2.3511409759521484 10 -3.2360680103302002
  endloop
 endfacet
 facet normal -0.4539905604429853 -0 -0.89100649325841841
  outer loop
   vertex -2.3511409759521484 -10 -3.2360680103302002
   vertex -2.3511409759521484 10 -3.2360680103302002
   vertex -1.2360680103302002 -10 -3.8042261600494385
  endloop
 endfacet
 facet normal -0.70710678118654757 0 -0.70710678118654757
  outer loop
   vertex -2.3511409759521484 10 -3.2360680103302002
   vertex -2.3511409759521484 -10 -3.2360680103302002
   vertex -3.2360680103302002 10 -2.3511409759521484
  endloop
 endfacet
 facet normal -0.70710678118654757 -0 -0.70710678118654757
  outer loop
   vertex -3.2360680103302002 -10 -2.3511409759521484
   vertex -3.2360680103302002 10 -2.3511409759521484
   vertex -2.3511409759521484 -10 -3.2360680103302002
  endloop
 endfacet
 facet normal -0.89100649325841841 0 -0.4539905604429853
  outer loop
   vertex -3.2360680103302002 10 -2.3511409759521484
   vertex -3.2360680103302002 -10 -2.3511409759521484
   vertex -3.8042261600494385 10 -1.2360680103302002
  endloop
 endfacet
 facet normal -0.89100649325841841 -0 -0.4539905604429853
  outer loop
   vertex -3.8042261600494385 -10 -1.2360680103302002
   vertex -3.8042261600494385 10 -1.2360680103302002
   vertex -3.2360680103302002 -10 -2.3511409759521484
  endloop
 endfacet
 facet normal -0.98768835294971435 0 -0.15643438703648394
  outer loop
   vertex -3.8042261600494385 10 -1.2360680103302002
   vertex -3.8042261600494385 -10 -1.2360680103302002
   vertex -4 10 -4.8985874103406714e-16
  endloop
 endfacet
 facet normal -0.98768835294971435 -0 -0.15643438703648394
  outer loop
   vertex -4 -10 -4.8985874103406714e-16
   vertex -4 10 -4.8985874103406714e-16
   vertex -3.8042261600494385 -10 -1.2360680103302002
  endloop
 endfacet
 facet normal -0.98768835294971447 0 0.15643438703648385
  outer loop
   vertex -4 10 -4.8985874103406714e-16
   vertex -4 -10 -4.8985874103406714e-16
   vertex -3.8042261600494385 10 1.2360680103302002
  endloop
 endfacet
 facet normal -0.98768835294971447 0 0.15643438703648385
  outer loop
   vertex -3.8042261600494385 -10 1.2360680103302002
   vertex -3.8042261600494385 10 1.2360680103302002
   vertex -4 -10 -4.8985874103406714e-16
  endloop
 endfacet
 facet normal -0.89100649325841841 0 0.4539905604429853
  outer loop
   vertex -3.8042261600494385 10 1.2360680103302002
   vertex -3.8042261600494385 -10 1.2360680103302002
   vertex -3.2360680103302002 10 2.3511409759521484
  endloop
 endfacet
 facet normal -0.89100649325841841 0 0.4539905604429853
  outer loop
   vertex -3.2360680103302002 -10 2.3511409759521484
   vertex -3.2360680103302002 10 2.3511409759521484
   vertex -3.8042261600494385 -10 1.2360680103302002
  endloop
 endfacet
 facet normal -0.70710678118654757 0 0.70710678118654757
  outer loop
   vertex -3.2360680103302002 10 2.3511409759521484
   vertex -3.2360680103302002 -10 2.3511409759521484
   vertex -2.3511409759521484 10 3.2360680103302002
  endloop
 endfacet
 facet normal -0.70710678118654757 0 0.70710678118654757
  outer loop
   vertex -2.3511409759521484 -10 3.2360680103302002
   vertex -2.3511409759521484 10 3.2360680103302002
   vertex -3.2360680103302002 -10 2.3511409759521484
  endloop
 endfacet
 facet normal -0.4539905604429853 0 0.89100649325841841
  outer loop
   vertex -2.3511409759521484 10 3.2360680103302002
   vertex -2.3511409759521484 -10 3.2360680103302002
   vertex -1.2360680103302002 10 3.8042261600494385
  endloop
 endfacet
 facet normal -0.4539905604429853 0 0.89100649325841841
  outer loop
   vertex -1.2360680103302002 -10 3.8042261600494385
   vertex -1.2360680103302002 10 3.8042261600494385
   vertex -2.3511409759521484 -10 3.2360680103302002
  endloop
 endfacet
 facet normal -0.15643438703648396 0 0.98768835294971435
  outer loop
   vertex -1.2360680103302002 10 3.8042261600494385
   vertex -1.2360680103302002 -10 3.8042261600494385
   vertex -7.3478805861154151e-16 10 4
  endloop
 endfacet
 facet normal -0.15643438703648396 0 0.98768835294971435
  outer loop
   vertex -7.3478805861154151e-16 -10 4
   vertex -7.3478805861154151e-16 10 4
   vertex -1.2360680103302002 -10 3.8042261600494385
  endloop
 endfacet
 facet normal 0.15643438703648382 -0 0.98768835294971447
  outer loop
   vertex -7.3478805861154151e-16 10 4
   vertex -7.3478805861154151e-16 -10 4
   vertex 1.2360680103302002 10 3.8042261600494385
  endloop
 endfacet
 facet normal 0.15643438703648382 0 0.98768835294971447
  outer loop
   vertex 1.2360680103302002 -10 3.8042261600494385
   vertex 1.2360680103302002 10 3.8042261600494385
   vertex -7.3478805861154151e-16 -10 4
  endloop
 endfacet
 facet normal 0.4539905604429853 -0 0.89100649325841841
  outer loop
   vertex 1.2360680103302002 10 3.8042261600494385
   vertex 1.2360680103302002 -10 3.8042261600494385
   vertex 2.3511409759521484 10 3.2360680103302002
  endloop
 endfacet
 facet normal 0.4539905604429853 0 0.89100649325841841
  outer loop
   vertex 2.3511409759521484 -10 3.2360680103302002
   vertex 2.3511409759521484 10 3.2360680103302002
   vertex 1.2360680103302002 -10 3.8042261600494385
  endloop
 endfacet
 facet normal 0.70710678118654757 -0 0.70710678118654757
  outer loop
   vertex 2.3511409759521484 10 3.2360680103302002
   vertex 2.3511409759521484 -10 3.2360680103302002
   vertex 3.2360680103302002 10 2.3511409759521484
  endloop
 endfacet
 facet normal 0.70710678118654757 0 0.70710678118654757
  outer loop
   vertex 3.2360680103302002 -10 2.3511409759521484
   vertex 3.2360680103302002 10 2.3511409759521484
   vertex 2.3511409759521484 -10 3.2360680103302002
  endloop
 endfacet
 facet normal 0.89100649325841841 -0 0.4539905604429853
  outer loop
   vertex 3.2360680103302002 10 2.3511409759521484
   vertex 3.2360680103302002 -10 2.3511409759521484
   vertex 3.8042261600494385 10 1.2360680103302002
  endloop
 endfacet
 facet normal 0.89100649325841841 0 0.4539905604429853
  outer loop
   vertex 3.8042261600494385 -10 1.2360680103302002
   vertex 3.8042261600494385 10 1.2360680103302002
   vertex 3.2360680103302002 -10 2.3511409759521484
  endloop
 endfacet
 facet normal 0.98768835294971435 -0 0.15643438703648388
  outer loop
   vertex 3.8042261600494385 10 1.2360680103302002
   vertex 3.8042261600494385 -10 1.2360680103302002
   vertex 4 10 0
  endloop
 endfacet
 facet normal 0.98768835294971435 0 0.15643438703648388
  outer loop
   vertex 4 -10 0
   vertex 4 10 0
   vertex 3.8042261600494385 -10 1.2360680103302002
  endloop
 endfacet
 facet normal 0 1 0
  outer loop
   vertex 1.2360680103302002 10 3.8042261600494385
   vertex 2.3511409759521484 10 3.2360680103302002
   vertex -7.3478805861154151e-16 10 4
  endloop
 endfacet
 facet normal 0 1 0
  outer loop
   vertex 2.3511409759521484 10 3.2360680103302002
   vertex 3.2360680103302002 10 2.3511409759521484
   vertex -7.3478805861154151e-16 10 4
  endloop
 endfacet
 facet normal 0 1 0
  outer loop
   vertex -7.3478805861154151e-16 10 4
   vertex 3.2360680103302002 10 2.3511409759521484
   vertex -1.2360680103302002 10 3.8042261600494385
  endloop
 endfacet
 facet normal 0 1 0
  outer loop
   vertex -1.2360680103302002 10 3.8042261600494385
   vertex 3.2360680103302002 10 2.3511409759521484
   vertex -2.3511409759521484 10 3.2360680103302002
  endloop
 endfacet
 facet normal 0 1 0
  outer loop
   vertex -2.3511409759521484 10 3.2360680103302002
   vertex 3.2360680103302002 10 2.3511409759521484
   vertex -3.2360680103302002 10 2.3511409759521484
  endloop
 endfacet
 facet normal 0 1 0
  outer loop
   vertex -3.2360680103302002 10 2.3511409759521484
   vertex 3.2360680103302002 10 2.3511409759521484
   vertex -3.8042261600494385 10 1.2360680103302002
  endloop
 endfacet
 facet normal 0 1 0
  outer loop
   vertex -3.8042261600494385 10 1.2360680103302002
   vertex 3.2360680103302002 10 2.3511409759521484
   vertex -4 10 -4.8985874103406714e-16
  endloop
 endfacet
 facet normal 0 1 0
  outer loop
   vertex -4 10 -4.8985874103406714e-16
   vertex 3.2360680103302002 10 2.3511409759521484
   vertex -3.8042261600494385 10 -1.2360680103302002
  endloop
 endfacet
 facet normal 0 1 0
  outer loop
   vertex -3.8042261600494385 10 -1.2360680103302002
   vertex 3.2360680103302002 10 2.3511409759521484
   vertex -3.2360680103302002 10 -2.3511409759521484
  endloop
 endfacet
 facet normal 0 1 0
  outer loop
   vertex -3.2360680103302002 10 -2.3511409759521484
   vertex 3.2360680103302002 10 2.3511409759521484
   vertex -2.3511409759521484 10 -3.2360680103302002
  endloop
 endfacet
 facet normal 0 1 0
  outer loop
   vertex -2.3511409759521484 10 -3.2360680103302002
   vertex 3.2360680103302002 10 2.3511409759521484
   vertex -1.2360680103302002 10 -3.8042261600494385
  endloop
 endfacet
 facet normal 0 1 0
  outer loop
   vertex 3.2360680103302002 10 2.3511409759521484
   vertex 3.8042261600494385 10 1.2360680103302002
   vertex -1.2360680103302002 10 -3.8042261600494385
  endloop
 endfacet
 facet normal 0 1 0
  outer loop
   vertex -1.2360680103302002 10 -3.8042261600494385
   vertex 3.8042261600494385 10 1.2360680103302002
   vertex 2.4492937051703357e-16 10 -4
  endloop
 endfacet
 facet normal 0 1 0
  outer loop
   vertex 2.4492937051703357e-16 10 -4
   vertex 3.8042261600494385 10 1.2360680103302002
   vertex 1.2360680103302002 10 -3.8042261600494385
  endloop
 endfacet
 facet normal 0 1 0
  outer loop
   vertex 3.8042261600494385 10 1.2360680103302002
   vertex 4 10 0
   vertex 1.2360680103302002 10 -3.8042261600494385
  endloop
 endfacet
 facet normal 0 1 -0
  outer loop
   vertex 4 10 0
   vertex 3.8042261600494385 10 -1.2360680103302002
   vertex 1.2360680103302002 10 -3.8042261600494385
  endloop
 endfacet
 facet normal 0 1 0
  outer loop
   vertex 1.2360680103302002 10 -3.8042261600494385
   vertex 3.8042261600494385 10 -1.2360680103302002
   vertex 2.3511409759521484 10 -3.2360680103302002
  endloop
 endfacet
 facet normal 0 1 -0
  outer loop
   vertex 3.8042261600494385 10 -1.2360680103302002
   vertex 3.2360680103302002 10 -2.3511409759521484
   vertex 2.3511409759521484 10 -3.2360680103302002
  endloop
 endfacet
 facet normal 0 -1 0
  outer loop
   vertex 1.2360680103302002 -10 3.8042261600494385
   vertex -7.3478805861154151e-16 -10 4
   vertex 2.3511409759521484 -10 3.2360680103302002
  endloop
 endfacet
 facet normal 0 -1 0
  outer loop
   vertex 2.3511409759521484 -10 3.2360680103302002
   vertex -7.3478805861154151e-16 -10 4
   vertex 3.2360680103302002 -10 2.3511409759521484
  endloop
 endfacet
 facet normal 0 -1 0
  outer loop
   vertex -7.3478805861154151e-16 -10 4
   vertex -1.2360680103302002 -10 3.8042261600494385
   vertex 3.2360680103302002 -10 2.3511409759521484
  endloop
 endfacet
 facet normal 0 -1 0
  outer loop
   vertex -1.2360680103302002 -10 3.8042261600494385
   vertex -2.3511409759521484 -10 3.2360680103302002
   vertex 3.2360680103302002 -10 2.3511409759521484
  endloop
 endfacet
 facet normal 0 -1 0
  outer loop
   vertex -2.3511409759521484 -10 3.2360680103302002
   vertex -3.2360680103302002 -10 2.3511409759521484
   vertex 3.2360680103302002 -10 2.3511409759521484
  endloop
 endfacet
 facet normal 0 -1 0
  outer loop
   vertex 3.2360680103302002 -10 2.3511409759521484
   vertex -3.2360680103302002 -10 2.3511409759521484
   vertex 3.8042261600494385 -10 1.2360680103302002
  endloop
 endfacet
 facet normal 0 -1 0
  outer loop
   vertex 3.8042261600494385 -10 1.2360680103302002
   vertex -3.2360680103302002 -10 2.3511409759521484
   vertex 4 -10 0
  endloop
 endfacet
 facet normal 0 -1 0
  outer loop
   vertex 4 -10 0
   vertex -3.2360680103302002 -10 2.3511409759521484
   vertex 3.8042261600494385 -10 -1.2360680103302002
  endloop
 endfacet
 facet normal 0 -1 0
  outer loop
   vertex 3.8042261600494385 -10 -1.2360680103302002
   vertex -3.2360680103302002 -10 2.3511409759521484
   vertex 3.2360680103302002 -10 -2.3511409759521484
  endloop
 endfacet
 facet normal 0 -1 0
  outer loop
   vertex 3.2360680103302002 -10 -2.3511409759521484
   vertex -3.2360680103302002 -10 2.3511409759521484
   vertex 2.3511409759521484 -10 -3.2360680103302002
  endloop
 endfacet
 facet normal 0 -1 0
  outer loop
   vertex 2.3511409759521484 -10 -3.2360680103302002
   vertex -3.2360680103302002 -10 2.3511409759521484
   vertex 1.2360680103302002 -10 -3.8042261600494385
  endloop
 endfacet
 facet normal 0 -1 0
  outer loop
   vertex -3.2360680103302002 -10 2.3511409759521484
   vertex -3.8042261600494385 -10 1.2360680103302002
   vertex 1.2360680103302002 -10 -3.8042261600494385
  endloop
 endfacet
 facet normal 0 -1 0
  outer loop
   vertex -3.8042261600494385 -10 1.2360680103302002
   vertex -4 -10 -4.8985874103406714e-16
   vertex 1.2360680103302002 -10 -3.8042261600494385
  endloop
 endfacet
 facet normal 0 -1 0
  outer loop
   vertex -4 -10 -4.8985874103406714e-16
   vertex -3.8042261600494385 -10 -1.2360680103302002
   vertex 1.2360680103302002 -10 -3.8042261600494385
  endloop
 endfacet
 facet normal 0 -1 0
  outer loop
   vertex 1.2360680103302002 -10 -3.8042261600494385
   vertex -3.8042261600494385 -10 -1.2360680103302002
   vertex 2.4492937051703357e-16 -10 -4
  endloop
 endfacet
 facet normal 0 -1 0
  outer loop
   vertex 2.4492937051703357e-16 -10 -4
   vertex -3.8042261600494385 -10 -1.2360680103302002
   vertex -1.2360680103302002 -10 -3.8042261600494385
  endloop
 endfacet
 facet normal 0 -1 0
  outer loop
   vertex -1.2360680103302002 -10 -3.8042261600494385
   vertex -3.8042261600494385 -10 -1.2360680103302002
   vertex -2.3511409759521484 -10 -3.2360680103302002
  endloop
 endfacet
 facet normal 0 -1 0
  outer loop
   vertex -3.8042261600494385 -10 -1.2360680103302002
   vertex -3.2360680103302002 -10 -2.3511409759521484
   vertex -2.3511409759521484 -10 -3.2360680103302002
  endloop
 endfacet
endsolid
//+
Surface Loop(1) = {1};
//+
Volume(1) = {1};
